<svg aria-hidden="true" style="width:0;height:0;position:absolute;overflow:hidden" xmlns="http://www.w3.org/2000/svg"><defs><symbol id="icon-menu" viewBox="0 0 32 32"><path fill="#fff" style="fill:var(--color1,#fff)" d="M6.4 11.733V9.6h19.2v2.133H6.4zm0 5.334h19.2v-2.133H6.4v2.133zm0 5.333h19.2v-2.133H6.4V22.4z"/></symbol><symbol id="icon-search" viewBox="0 0 32 32"><path d="m31.008 27.231-7.58-6.447c-.784-.705-1.622-1.029-2.299-.998a11.954 11.954 0 0 0 2.87-7.787c0-6.627-5.373-12-12-12s-12 5.373-12 12 5.373 12 12 12c2.972 0 5.691-1.081 7.787-2.87-.031.677.293 1.515.998 2.299l6.447 7.58c1.104 1.226 2.907 1.33 4.007.23s.997-2.903-.23-4.007zM12 20a8 8 0 1 1 0-16 8 8 0 0 1 0 16z"/></symbol><symbol id="icon-warning" viewBox="0 0 32 32"><path d="m16 2.899 13.409 26.726H2.59L15.999 2.899zM16 0c-.69 0-1.379.465-1.903 1.395L.438 28.617C-.608 30.477.282 32 2.416 32h27.166c2.134 0 3.025-1.522 1.978-3.383L17.901 1.395C17.378.465 16.688 0 15.998 0z"/><path d="M18 26a2 2 0 1 1-3.999.001A2 2 0 0 1 18 26zM16 22a2 2 0 0 1-2-2v-6a2 2 0 1 1 4 0v6a2 2 0 0 1-2 2z"/></symbol></defs></svg>